HIERARCHY
ROOT Hips
{
	OFFSET 0.00 0.00 0.00
	CHANNELS 6 Xposition Yposition Zposition Xrotation Yrotation Zrotation
	JOINT LeftUpLeg
	{
		OFFSET 3.64953 0.00000 0.00000
		CHANNELS 3 Xrotation Yrotation Zrotation
		JOINT LeftLeg
		{
			OFFSET 0.00000 -15.70580 0.00000
			CHANNELS 3 Xrotation Yrotation Zrotation
			JOINT LeftFoot
			{
				OFFSET 0.00000 -15.41867 0.00000
				CHANNELS 3 Xrotation Yrotation Zrotation
				JOINT LeftToeBase
				{
					OFFSET 0.00000 -1.53543 5.73033
					CHANNELS 3 Xrotation Yrotation Zrotation
					End Site
					{
						OFFSET 0.00000 0.00000 2.95275
					}
				}
			}
		}
	}
	JOINT RightUpLeg
	{
		OFFSET -3.64953 0.00000 0.00000
		CHANNELS 3 Xrotation Yrotation Zrotation
		JOINT RightLeg
		{
			OFFSET 0.00000 -15.70580 0.00000
			CHANNELS 3 Xrotation Yrotation Zrotation
			JOINT RightFoot
			{
				OFFSET 0.00000 -15.41867 0.00000
				CHANNELS 3 Xrotation Yrotation Zrotation
				JOINT RightToeBase
				{
					OFFSET 0.00000 -1.53543 5.73033
					CHANNELS 3 Xrotation Yrotation Zrotation
					End Site
					{
						OFFSET 0.00000 0.00000 2.95275
					}
				}
			}
		}
	}
	JOINT Spine
	{
		OFFSET 0.00000 0.03937 0.00000
		CHANNELS 3 Xrotation Yrotation Zrotation
		JOINT Spine1
		{
			OFFSET 0.00000 10.24829 0.00000
			CHANNELS 3 Xrotation Yrotation Zrotation
			JOINT Neck
			{
				OFFSET 0.00000 7.82687 0.00000
				CHANNELS 3 Xrotation Yrotation Zrotation
				JOINT Head
				{
					OFFSET 0.00000 6.90715 0.00000
					CHANNELS 3 Xrotation Yrotation Zrotation
					End Site
					{
						OFFSET 0.00000 4.52755 0.00000
					}
				}
			}
			JOINT LeftShoulder
			{
				OFFSET 0.00000 7.82687 0.00000
				CHANNELS 3 Xrotation Yrotation Zrotation
				JOINT LeftArm
				{
					OFFSET 6.71018 -0.00002 0.00000
					CHANNELS 3 Xrotation Yrotation Zrotation
					JOINT LeftForeArm
					{
						OFFSET 10.94419 -0.00004 0.00000
						CHANNELS 3 Xrotation Yrotation Zrotation
						JOINT LeftHand
						{
							OFFSET 8.52010 -0.00003 0.00000
							CHANNELS 3 Xrotation Yrotation Zrotation
							JOINT LeftHandThumb
							{
								OFFSET 0.00000 0.00000 0.00000
								CHANNELS 3 Xrotation Yrotation Zrotation
								End Site
								{
									OFFSET 0.00000 0.00000 3.93700
								}
							}
							JOINT L_Wrist_End
							{
								OFFSET 3.93700 -0.00001 0.00000
								CHANNELS 3 Xrotation Yrotation Zrotation
							}
						}
					}
				}
			}
			JOINT RightShoulder
			{
				OFFSET 0.00000 7.82687 0.00000
				CHANNELS 3 Xrotation Yrotation Zrotation
				JOINT RightArm
				{
					OFFSET -6.71018 -0.00002 0.00000
					CHANNELS 3 Xrotation Yrotation Zrotation
					JOINT RightForeArm
					{
						OFFSET -10.94419 -0.00004 0.00000
						CHANNELS 3 Xrotation Yrotation Zrotation
						JOINT RightHand
						{
							OFFSET -8.52010 -0.00003 0.00000
							CHANNELS 3 Xrotation Yrotation Zrotation
							JOINT RightHandThumb
							{
								OFFSET 0.00000 0.00000 0.00000
								CHANNELS 3 Xrotation Yrotation Zrotation
								End Site
								{
									OFFSET 0.00000 0.00000 3.93700
								}
							}
							JOINT R_Wrist_End
							{
								OFFSET -5.39369 -0.00002 0.00000
								CHANNELS 3 Xrotation Yrotation Zrotation
							}
						}
					}
				}
			}
		}
	}
}
MOTION
Frames: 6
Frame Time: 0.008333
 27.5790 31.9845 -2.9355 14.7906 3.4041 5.4585 -24.6313 4.8331 4.5098 18.4197 -0.0000 0.0000 -13.6758 -3.7239 -20.5927 -10.9326 0.0000 -0.0000 -32.5117 5.2051 -5.8583 34.5709 -0.0000 0.0000 -31.2440 0.5131 -9.7434 8.9259 -0.0000 0.0000 1.9535 2.8504 -0.3661 11.2062 -0.1018 -0.3608 -2.6254 -4.5157 -4.4619 0.7007 -4.5757 5.7964 19.9738 9.9879 -2.8612 -13.9854 -44.2841 -70.6418 -0.0001 -24.2395 -0.0000 -15.3056 -3.0625 -10.2232 -0.0000 -0.0000 -0.0000 -0.0000 -0.0000 -0.0000 12.2912 -16.3994 2.3021 -10.1707 40.0437 71.8767 -0.0002 35.7306 0.0000 -25.2949 -0.8237 5.4619 0.0000 -0.0000 0.0000 0.0000 -0.0000 0.0000
 27.5816 31.9080 -2.9954 14.6616 3.6349 5.5292 -25.4338 4.1723 4.3374 20.0653 -0.0000 -0.0000 -14.3783 -3.3003 -20.3524 -11.0438 0.0000 -0.0000 -32.8771 5.4726 -5.8720 35.4880 -0.0000 0.0000 -31.6469 0.2594 -10.2822 8.8787 -0.0000 0.0000 2.1772 2.8188 -0.3204 11.4765 -0.1276 -0.3356 -3.1577 -4.5185 -4.4141 0.6854 -4.7873 5.5543 19.6431 9.7626 -2.7789 -14.5970 -44.3236 -71.1011 -0.0001 -23.3855 -0.0000 -15.1303 -3.1015 -9.8432 -0.0000 -0.0000 0.0000 -0.0000 -0.0000 0.0000 12.2045 -16.2961 2.2734 -10.5237 39.5489 72.0850 -0.0001 35.2469 0.0000 -26.4206 -0.7375 5.7547 0.0000 0.0000 0.0000 0.0000 0.0000 0.0000
 27.5913 31.8180 -3.0766 14.7345 3.9536 5.6273 -26.6214 3.6115 4.0973 21.9502 -0.0000 0.0000 -15.0877 -3.0992 -19.9034 -11.4033 0.0000 -0.0000 -33.5424 5.7537 -5.9519 36.5237 -0.0000 0.0000 -32.1305 -0.0696 -10.6336 9.0569 0.0000 -0.0000 2.4132 2.7835 -0.2330 11.3317 -0.1709 -0.3579 -3.1025 -4.8552 -4.7167 -0.1971 -4.8018 5.9614 19.5577 9.5889 -2.6899 -15.5102 -44.1948 -71.7141 -0.0001 -22.5390 -0.0000 -14.4431 -2.6027 -10.1222 0.0000 -0.0000 -0.0000 0.0000 -0.0000 -0.0000 12.1064 -16.2084 2.0631 -10.8812 38.6828 72.5810 -0.0001 34.8221 0.0000 -27.0988 -0.9098 6.3963 -0.0000 -0.0000 0.0000 -0.0000 -0.0000 0.0000
 27.5889 31.7123 -3.1366 14.6252 4.1361 5.7087 -27.5903 3.1958 3.9684 23.8543 -0.0000 0.0000 -15.8486 -3.0338 -19.5205 -11.8171 0.0000 -0.0000 -34.0521 6.1382 -5.9149 37.6943 -0.0000 0.0000 -32.7588 -0.4114 -11.1157 9.0481 0.0000 -0.0000 2.6177 2.7844 -0.1884 11.5640 -0.1693 -0.3481 -3.7255 -4.8102 -4.5847 -0.0169 -5.0420 5.5281 19.2465 9.4260 -2.5397 -16.2245 -44.3439 -72.2705 -0.0001 -21.6786 -0.0000 -14.2133 -2.5552 -9.8779 -0.0000 0.0000 -0.0000 -0.0000 0.0000 -0.0000 12.0490 -16.0875 1.9595 -11.1995 38.2227 72.7573 -0.0001 34.4664 0.0000 -27.8129 -1.1433 6.9286 0.0000 -0.0000 0.0000 0.0000 -0.0000 0.0000
 27.5840 31.5929 -3.2207 14.7653 4.3143 5.8239 -28.9027 2.7165 3.7860 25.8646 -0.0000 0.0000 -16.5728 -2.7964 -19.3202 -12.0513 0.0000 -0.0000 -34.9291 6.5727 -5.8906 39.0178 -0.0000 0.0000 -33.5057 -0.8454 -11.1905 9.3715 0.0000 0.0000 2.7837 2.8230 -0.1333 11.4496 -0.1544 -0.4255 -3.7878 -5.1247 -4.8492 -0.8137 -5.0861 5.9873 19.1846 9.3808 -2.4722 -17.1292 -44.4989 -72.7713 -0.0001 -20.9110 -0.0000 -13.5164 -2.0871 -10.0814 0.0000 0.0000 0.0000 0.0000 0.0000 0.0000 11.9240 -15.9708 1.7059 -11.3532 37.7934 73.0602 -0.0001 34.1157 0.0000 -28.4060 -1.3300 7.2556 -0.0000 -0.0000 -0.0000 -0.0000 -0.0000 -0.0000
 27.5710 31.4578 -3.2826 14.8012 4.3259 5.9265 -30.1065 2.7285 3.8039 27.9335 -0.0000 0.0000 -17.4270 -2.8934 -19.3529 -12.1158 0.0000 0.0000 -35.7353 7.1379 -5.7291 40.4638 -0.0000 0.0000 -34.2451 -1.2376 -11.4067 9.4231 0.0000 -0.0000 2.9086 2.9025 -0.1186 11.5584 -0.0949 -0.4834 -4.2371 -5.2012 -4.8442 -0.9607 -5.2377 5.8811 18.9135 9.3268 -2.3711 -17.7528 -44.7231 -73.1995 -0.0001 -20.2552 -0.0000 -13.0554 -1.7754 -9.9747 -0.0000 -0.0000 -0.0000 -0.0000 -0.0000 -0.0000 11.8685 -15.7934 1.5518 -11.5041 37.6420 73.1316 -0.0001 33.7972 0.0000 -28.8142 -1.5003 7.5315 0.0000 -0.0000 0.0000 0.0000 -0.0000 0.0000
